<svg width="35" height="38" viewBox="0 0 35 38" fill="none" xmlns="http://www.w3.org/2000/svg">
<path fill-rule="evenodd" clip-rule="evenodd" d="M22.2308 0.74504C19.4829 1.90393 15.517 1.90392 12.7692 0.745032C10.5366 -0.196551 8.03927 -0.283868 5.73501 0.702783C0.87229 2.78492 -1.30873 8.86959 0.807718 14.3585C0.808186 14.3597 0.808166 14.3611 0.807653 14.3623L1.46812 15.776C3.70073 20.5548 5.38359 25.5644 6.48535 30.7113L7.53341 35.6075C7.89611 37.015 9.1778 38 10.6465 38C12.2239 38 13.5679 36.8675 13.8184 35.3272L15.2959 26.2397C15.4699 25.1694 16.4039 24.3824 17.5 24.3824C18.5962 24.3824 19.5301 25.1694 19.7041 26.2397L21.1817 35.3272C21.4321 36.8674 22.7761 38 24.3535 38C25.8222 38 27.1039 37.015 27.4666 35.6075L28.5147 30.7113C29.6164 25.5644 31.2993 20.5548 33.5319 15.776L34.1923 14.3623C34.1918 14.3611 34.1918 14.3597 34.1923 14.3585C36.3087 8.86959 34.1277 2.78492 29.265 0.702783C26.9607 -0.283878 24.4634 -0.196556 22.2308 0.74504Z" fill="white"/>
</svg>
